# xmcd
#
# Track frame offsets:
#	150
#	13815
#	23885
#	34757
#	47280
#	63982
#	75617
#	87210
#	100130
#	109440
#	122742
#	134832
#	147527
#	160347
#
# Disc length: 2314
#
# Revision: 2
# Processed by: cddbd v1.5.1PL0 Copyright (c) Steve Scherf et al.
# Submitted via: dBpowerAMP V4.0
# Normalized: r0:TSWAP
#
DISCID=bf09080e
DTITLE=Various Artist - Country Legends
DYEAR=1900
DGENRE=Country
TTITLE0=Jim Reeves And Patsy Cline - Have You Ever Been Lonely (Have You Ever Been Blue)
TTITLE1=George Hamilton IV - Abilene
TTITLE2=Hank Locklin - Please Help Me, I'm Falling
TTITLE3=Skeeter Davis - (I Can't Help You) I'm Falling Too
TTITLE4=Ronnie Milsap - Any Day Now
TTITLE5=Dottie West - Here Comes My Baby
TTITLE6=Don Gibson - Sea Of Heartbreak
TTITLE7=The Browns - The Three Bells (Les Trois Cloches)
TTITLE8=Charley Pride - Kiss An Angel Good Morning
TTITLE9=Dolly Parton - Here You Come Again
TTITLE10=Eddy Arnold - Make The World Go Away
TTITLE11=Jerry Reed - East Bound And Down
TTITLE12=Hank Snow - I'm Movin' On
TTITLE13=Waylon Jennings and Willie Nelson - Good Hearted Woman
EXTD=
EXTT0=
EXTT1=
EXTT2=
EXTT3=
EXTT4=
EXTT5=
EXTT6=
EXTT7=
EXTT8=
EXTT9=
EXTT10=
EXTT11=
EXTT12=
EXTT13=
PLAYORDER=
